<svg xmlns="http://www.w3.org/2000/svg" version="1.1" xmlns:xlink="http://www.w3.org/1999/xlink" xmlns:svgjs="http://svgjs.dev/svgjs" viewBox="0 0 800 800"><defs><filter id="uuunion-blur" x="-100%" y="-100%" width="400%" height="400%" color-interpolation-filters="sRGB">
        <feGaussianBlur in="SourceGraphic" stdDeviation="13.5 0" result="blur"></feGaussianBlur>
        <feDropShadow stdDeviation="24.615384615384617" in="blur" dx="20" dy="20" flood-color="hsl(290, 92%, 27%)" flood-opacity="0.53" x="0%" y="0%" width="100%" height="100%"></feDropShadow>
      </filter><filter id="uuunion-blur2" x="-100%" y="-100%" width="400%" height="400%" color-interpolation-filters="sRGB">
        <feGaussianBlur in="SourceGraphic" stdDeviation="13.5 0" result="blur"></feGaussianBlur>
        <feDropShadow stdDeviation="24.615384615384617" in="blur" dx="-20" dy="-20" flood-color="hsl(290, 92%, 27%)" flood-opacity="0.53" x="0%" y="0%" width="100%" height="100%"></feDropShadow>
      </filter><linearGradient gradientTransform="rotate(124, 0.5, 0.5)" x1="50%" y1="0%" x2="50%" y2="100%" id="uuunion-grad"><stop stop-color="hsl(282, 76%, 22%)" offset="10%"></stop><stop stop-color="hsl(290, 92%, 27%)" offset="90%"></stop></linearGradient><linearGradient gradientTransform="rotate(318, 0.5, 0.5)" x1="50%" y1="0%" x2="50%" y2="100%" id="uuunion-grad2"><stop stop-color="hsl(282, 76%, 22%)" offset="25%"></stop><stop stop-color="hsl(290, 92%, 27%)" offset="100%"></stop></linearGradient><linearGradient gradientTransform="rotate(246, 0.5, 0.5)" x1="50%" y1="0%" x2="50%" y2="100%" id="uuunion-grad3"><stop stop-color="hsl(282, 76%, 22%)" offset="0%"></stop><stop stop-color="hsl(290, 92%, 27%)" offset="75%"></stop></linearGradient></defs><path d="M-80.88 -78.2Q-65.9 -75.49 -50.92 -73.09 -35.94 -71.17 -20.96 -69.85 -5.97 -69.24 9 -69.36 23.98 -70.22 38.96 -71.75 53.94 -73.84 68.92 -76.37 83.9 -79.14 98.89 -81.97 113.87 -84.66 128.85 -87.03 143.83 -88.92 158.81 -90.2 173.79 -90.77 188.77 -90.6 203.76 -89.7 218.74 -88.13 233.72 -86 248.7 -83.46 263.68 -80.68 278.66 -77.85 293.65 -75.17 308.63 -72.82 323.61 -70.97 338.59 -69.74 353.57 -69.21 368.55 -69.43 383.53 -70.37 398.52 -71.98 413.5 -74.14 428.48 -76.7 443.46 -79.49 458.44 -82.31 473.42 -84.98 488.41 -87.3 503.39 -89.12 518.37 -90.31 533.35 -90.79 548.33 -90.52 563.31 -89.54 578.29 -87.89 593.28 -85.7 608.26 -83.12 623.24 -80.33 638.22 -77.51 653.2 -74.86 668.18 -72.56 683.16 -70.78 698.15 -69.63 713.13 -69.2 728.11 -69.51 743.09 -70.54 758.07 -72.22 773.05 -74.44 788.04 -77.04 803.02 -79.84 818 -82.65 832.98 -85.29 847.96 -87.55 862.94 -89.3 877.92 -90.41 878.09 -75.26 878.38 -60.12 878.79 -44.97 879.27 -29.83 879.81 -14.68 880.36 0.45 880.89 15.6 881.35 30.74 881.72 45.89 881.97 61.03 882.09 76.17 882.06 91.32 881.89 106.46 881.59 121.61 881.18 136.75 880.68 151.9 880.14 167.04 879.59 182.19 879.07 197.33 878.61 212.48 878.25 227.62 878.01 242.77 877.9 257.91 877.94 273.05 878.12 288.2 878.42 303.34 878.84 318.49 879.34 333.63 879.88 348.78 880.43 363.92 880.95 379.07 881.4 394.21 881.76 409.36 881.99 424.5 882.09 439.65 882.05 454.79 881.86 469.93 881.54 485.08 881.12 500.22 880.62 515.37 880.08 530.51 879.53 545.66 879.01 560.8 878.56 575.95 878.21 591.09 877.98 606.24 877.9 621.38 877.95 636.52 878.15 651.67 878.47 666.81 878.9 681.96 879.4 697.1 879.95 712.25 880.5 727.39 881.01 742.54 881.45 757.68 881.8 772.83 882.01 787.97 882.09 803.12 882.03 818.26 881.83 833.4 881.5 848.55 881.06 863.69 880.55 878.84 865.55 878.96 850.54 879.16 835.54 879.41 820.53 879.7 805.53 880.01 790.52 880.32 775.52 880.61 760.51 880.86 745.51 881.05 730.5 881.16 715.5 881.19 700.49 881.15 685.49 881.02 670.48 880.82 655.48 880.57 640.47 880.27 625.47 879.96 610.46 879.65 595.46 879.36 580.45 879.12 565.45 878.93 550.44 878.83 535.44 878.8 520.43 878.85 505.43 878.98 490.42 879.18 475.42 879.44 460.41 879.74 445.41 880.05 430.4 880.36 415.4 880.65 400.39 880.89 385.39 881.06 370.38 881.17 355.38 881.19 340.37 881.13 325.37 881 310.36 880.79 295.36 880.53 280.35 880.23 265.35 879.92 250.34 879.61 235.34 879.33 220.33 879.09 205.33 878.92 190.32 878.82 175.32 878.8 160.31 878.86 145.31 879 130.3 879.21 115.3 879.48 100.29 879.78 85.29 880.09 70.28 880.4 55.28 880.68 40.27 880.91 25.27 881.08 10.26 881.18 -4.73 881.19 -19.74 881.12 -34.74 880.98 -49.75 880.76 -64.75 880.5 -79.76 880.19 -79.54 865.22 -79.35 850.24 -79.21 835.27 -79.12 820.29 -79.1 805.32 -79.13 790.34 -79.22 775.37 -79.37 760.39 -79.56 745.42 -79.78 730.44 -80.02 715.47 -80.25 700.49 -80.46 685.52 -80.65 670.54 -80.79 655.57 -80.87 640.59 -80.89 625.62 -80.86 610.64 -80.76 595.67 -80.61 580.69 -80.42 565.72 -80.2 550.74 -79.96 535.77 -79.73 520.79 -79.51 505.82 -79.33 490.84 -79.2 475.87 -79.12 460.89 -79.1 445.92 -79.14 430.94 -79.24 415.97 -79.39 400.99 -79.59 386.02 -79.81 371.04 -80.04 356.07 -80.28 341.09 -80.49 326.12 -80.67 311.14 -80.8 296.17 -80.88 281.19 -80.89 266.22 -80.85 251.24 -80.74 236.27 -80.59 221.29 -80.39 206.32 -80.17 191.34 -79.93 176.37 -79.7 161.39 -79.49 146.42 -79.31 131.44 -79.18 116.47 -79.11 101.49 -79.1 86.52 -79.15 71.54 -79.26 56.57 -79.41 41.59 -79.61 26.62 -79.84 11.64 -80.07 -3.32 -80.3 -18.3 -80.51 -33.27 -80.69 -48.25 -80.81 -63.22 -80.88 -78.2" fill="url(#uuunion-grad)"></path><path d="M-80.88 -78.2Q-80.81 -63.22 -80.69 -48.25 -80.51 -33.27 -80.3 -18.3 -80.07 -3.32 -79.84 11.64 -79.61 26.62 -79.41 41.59 -79.26 56.57 -79.15 71.54 -79.1 86.52 -79.11 101.49 -79.18 116.47 -79.31 131.44 -79.49 146.42 -79.7 161.39 -79.93 176.37 -80.17 191.34 -80.39 206.32 -80.59 221.29 -80.74 236.27 -80.85 251.24 -80.89 266.22 -80.88 281.19 -80.8 296.17 -80.67 311.14 -80.49 326.12 -80.28 341.09 -80.04 356.07 -79.81 371.04 -79.59 386.02 -79.39 400.99 -69.38 402.01 -59.38 402.97 -49.37 403.83 -39.36 404.58 -29.35 405.18 -19.34 405.63 -0.58 405.97 2.66 405.99 15.05 399.61 27.43 392.95 39.81 386.01 52.17 378.83 64.53 371.45 76.88 363.91 89.23 356.27 101.57 348.61 113.92 340.99 126.26 333.48 138.61 326.13 150.96 319.01 163.31 312.17 175.67 305.63 188.04 299.41 200.42 293.53 212.81 287.96 225.21 282.69 237.63 277.67 250.06 272.84 262.5 268.13 274.96 263.49 287.44 258.82 299.93 254.06 312.44 249.12 324.97 243.95 337.51 238.49 350.07 232.69 362.65 226.52 375.24 219.98 387.84 213.08 400.45 205.84 413.07 198.3 425.7 190.52 438.34 182.57 450.97 174.53 463.62 166.49 476.26 158.53 488.9 150.73 501.53 143.18 514.16 135.93 526.78 129.05 539.39 122.56 551.99 116.49 564.57 110.83 577.13 105.55 589.68 100.63 602.21 95.99 614.72 91.57 627.21 87.28 639.68 83.03 652.12 78.72 664.54 74.26 676.95 69.55 689.33 64.53 701.68 59.12 714.02 53.29 726.35 47 738.65 40.26 750.94 33.08 763.22 25.49 775.49 17.57 787.74 9.38 800 1.01 799.39 -16.46 798.84 -33.94 798.4 -51.42 798.11 -68.9 798 -86.39 798.07 -103.87 798.32 -121.35 798.73 -138.83 783.83 -135.94 768.94 -133.32 754.05 -131.16 739.15 -129.6 724.26 -128.74 709.36 -128.65 694.47 -129.33 679.57 -130.74 664.68 -132.77 649.78 -135.3 634.89 -138.15 620 -141.12 605.1 -144.01 590.21 -146.63 575.31 -148.8 560.42 -150.38 545.52 -151.24 530.63 -151.34 515.73 -150.67 500.84 -149.27 485.95 -147.25 471.05 -144.72 456.16 -141.88 441.26 -138.91 426.37 -136.01 411.47 -133.39 396.58 -131.21 381.68 -129.63 366.79 -128.76 351.9 -128.64 337 -129.31 322.11 -130.69 307.21 -132.71 292.32 -135.23 277.42 -138.07 262.53 -141.04 247.63 -143.94 232.74 -146.57 217.85 -148.75 202.95 -150.34 188.06 -151.23 173.16 -151.35 158.27 -150.7 143.37 -149.32 128.48 -147.31 113.58 -144.8 98.69 -141.96 83.8 -138.99 68.9 -136.09 54.01 -133.45 39.11 -131.26 24.22 -129.66 9.32 -128.77 -5.56 -128.64 -20.46 -129.28 -35.35 -130.65 -50.24 -132.65 -65.14 -135.16 -80.03 -137.99 -94.93 -140.96 -109.82 -143.87 -124.72 -146.51 -134.73 -134.74 -117.79 -115.14 -108.59 -105.96 -99.37 -96.71 -90.13 -87.44 -80.88 -78.2" fill="url(#uuunion-grad2)" filter="url(#uuunion-blur)"></path><path d="M801.34 400.61Q811.34 399.56 821.35 398.52 831.36 397.53 841.37 396.61 851.38 395.8 861.39 395.11 871.39 394.58 881.4 394.21 881.76 409.36 881.99 424.5 882.09 439.65 882.05 454.79 881.86 469.93 881.54 485.08 881.12 500.22 880.62 515.37 880.08 530.51 879.53 545.66 879.01 560.8 878.56 575.95 878.21 591.09 877.98 606.24 877.9 621.38 877.95 636.52 878.15 651.67 878.47 666.81 878.9 681.96 879.4 697.1 879.95 712.25 880.5 727.39 881.01 742.54 881.45 757.68 881.8 772.83 882.01 787.97 882.09 803.12 882.03 818.26 881.83 833.4 881.5 848.55 881.06 863.69 880.55 878.84 866.78 878.95 853.01 879.12 839.24 879.34 825.47 879.6 811.7 879.88 797.93 880.17 784.16 880.45 770.39 880.7 756.62 880.91 742.85 881.07 729.08 881.17 715.31 881.19 701.54 881.15 687.77 881.04 674 880.87 660.23 880.65 646.46 880.39 632.69 880.11 618.92 879.82 605.15 879.54 591.38 879.29 577.61 879.08 563.84 878.92 550.07 878.82 536.3 878.8 522.53 878.84 508.76 878.95 494.99 879.12 481.22 879.34 467.45 879.6 453.68 879.88 439.91 880.17 426.14 880.45 412.37 880.7 398.6 880.91 384.83 881.07 371.06 881.17 357.29 881.19 343.52 881.15 329.75 881.05 315.98 880.88 302.21 880.66 288.44 880.4 274.66 880.11 260.89 879.83 247.12 879.55 233.35 879.29 219.58 879.08 205.81 878.92 192.04 878.82 178.27 878.8 164.5 878.84 150.73 878.94 136.96 879.11 123.19 879.33 109.42 879.59 95.65 879.87 81.88 880.16 68.11 880.44 54.34 880.69 40.57 880.91 26.8 881.07 6.23 876.23 -0.41 861.39 -0.28 851.49 -0.17 841.59 -0.08 831.69 -0.03 821.79 0.24 806.94 0.99 802 13.49 795.76 25.97 789.42 38.45 782.98 50.91 776.43 63.35 769.8 75.79 763.09 88.21 756.33 100.62 749.54 113.02 742.74 125.42 735.97 137.8 729.24 150.18 722.59 162.55 716.05 174.91 709.63 187.28 703.34 199.64 697.19 212.01 691.19 224.38 685.33 236.75 679.59 249.13 673.95 261.51 668.39 273.91 662.87 286.31 657.36 298.73 651.83 311.17 646.23 323.61 640.52 336.08 634.69 348.56 628.71 361.06 622.55 373.57 616.2 386.11 609.67 398.66 602.96 411.23 596.1 423.81 589.09 436.42 581.99 449.03 574.82 461.67 567.64 474.31 560.48 486.97 553.39 499.63 546.42 512.31 539.6 524.99 532.98 537.67 526.56 550.35 520.36 563.04 514.4 575.72 508.65 588.39 503.11 601.06 497.73 613.71 492.49 626.36 487.34 638.99 482.22 651.6 477.08 664.2 471.86 676.78 466.52 689.33 461 701.87 455.27 714.38 449.3 726.87 443.05 739.34 436.54 751.78 429.77 764.2 422.75 776.6 415.52 795.16 404.36 801.34 400.61" fill="url(#uuunion-grad3)" filter="url(#uuunion-blur2)"></path></svg>


      