<svg width="340" height="230" viewBox="0 0 340 230" fill="none" xmlns="http://www.w3.org/2000/svg">
<g clip-path="url(#clip0_7_19)">
<path d="M146.398 24.9524L122.422 0.977114L0.894925 122.505L107.457 229.067L131.433 205.092L48.8455 122.505L146.398 24.9524Z" fill="black"/>
<path d="M112.373 122.23L197.011 206.869C223.132 232.99 251.967 236.382 273.508 214.841C288.095 200.254 289.113 180.918 281.65 164.974C293.014 169.553 310.654 170.571 324.732 156.493C345.934 135.291 342.372 108.661 315.742 82.0313L234.157 0.445862L112.373 122.23ZM209.007 72.9952L234.619 47.3831L289.621 102.385C300.986 113.749 303.191 124.435 294.71 132.916C286.229 141.397 275.374 139.362 264.009 127.997L209.007 72.9952ZM186.957 95.0453L245.521 153.609C256.377 164.465 257.225 176.508 249.083 184.649C240.942 192.791 228.899 191.943 218.043 181.087L159.479 122.523L186.957 95.0453Z" fill="black"/>
</g>
<defs>
<clipPath id="clip0_7_19">
<rect width="340" height="230" fill="white"/>
</clipPath>
</defs>
</svg>
