<svg xmlns="http://www.w3.org/2000/svg" viewBox="0 0 86 57"><g><g><g><g><path fill="#FFFFFF" d="M14.2 13.138A8.499 8.499 0 0 0 8.507 14.9v2.005a7.777 7.777 0 0 1 4.971-2.005c6.174 0 8.258 6.816 8.258 13.47 0 6.655-2.084 13.79-9.22 13.79a9.06 9.06 0 0 1-3.929-1.122v2.005c2.085 1.443 7.457 1.443 10.664-.08 5.292-2.486 8.659-7.216 8.659-14.513-.08-8.579-5.773-15.313-13.71-15.313z"/></g><g><path fill="#FFFFFF" d="M5.124 56.995H.008V13.458h5.116z"/></g><g><path fill="#FFFFFF" d="M57.656 41.52c-2.165 0-2.486-2.004-2.486-4.49l.16-13.229c0-3.688-.801-6.414-2.645-8.098a9.46 9.46 0 0 0-5.853-2.485v1.042a3.929 3.929 0 0 1 2.245 2.165c.802 1.603 1.202 4.009 1.122 7.216v14.672c0 3.528 1.764 5.533 5.372 5.533 3.608 0 4.49-1.123 5.372-4.17l-.802-.32c-.561 1.443-1.363 2.164-2.485 2.164z"/></g><g><path fill="#FFFFFF" d="M36.65 22.759c2.004.24 3.287-1.123 3.287-3.768a4.971 4.971 0 0 1 3.527-4.811v-1.042c-3.447.24-6.494 1.603-7.937 3.848-1.443 2.245-1.363 5.372 1.122 5.773z"/></g><g><path fill="#FFFFFF" d="M32.961 37.832a5.612 5.612 0 0 0 1.924 4.33 7.056 7.056 0 0 0 4.971 1.764c2.072.01 4.104-.574 5.853-1.684l1.123-.882v-1.684a5.853 5.853 0 0 1-3.769 1.604 4.57 4.57 0 0 1-3.126-1.042 4.25 4.25 0 0 1-1.203-3.288 6.895 6.895 0 0 1 2.485-5.211 18.761 18.761 0 0 1 5.533-2.967V27.65c-4.09 1.283-7.457 2.485-9.622 3.848-2.164 1.363-4.169 3.849-4.169 6.334z"/></g><g><path fill="#FFFFFF" d="M71.526 6.483a3.608 3.608 0 0 0 0-5.051 3.768 3.768 0 0 0-5.13 0 3.608 3.608 0 0 0 2.565 6.093 3.528 3.528 0 0 0 2.565-1.042z"/></g><g><path fill="#FFFFFF" d="M71.494 43.364h-5.099V13.458h5.1z"/></g><g><path fill="#FFFFFF" d="M81.468 38.875h1.123c.133-.014.268-.014.4 0l.322.16.24.24v.802l-.32.24c-.13.046-.265.073-.402.08H81.55zm-.24 3.688h.32v-1.925h1.043l1.283 1.925h.4l-1.122-1.764c.137-.009.272-.036.401-.08l.32-.24.241-.322v-.48a1.042 1.042 0 0 0-.32-.883 1.523 1.523 0 0 0-1.043-.32h-1.523zm1.283-5.212c.386.01.766.092 1.122.24.359.151.686.369.962.642.272.278.49.604.642.962a3.367 3.367 0 0 1 0 2.486c-.143.386-.361.74-.642 1.042-.27.3-.597.546-.962.722a3.127 3.127 0 0 1-2.405 0 3.047 3.047 0 0 1-.962-.642 3.208 3.208 0 0 1-.642-1.042 3.127 3.127 0 0 1-.24-1.203c-.007-.44.075-.875.24-1.283.143-.386.361-.74.642-1.042.275-.275.602-.493.962-.641.407-.168.843-.25 1.283-.24zm-1.363-.08a3.448 3.448 0 0 0-1.844 1.844 3.528 3.528 0 0 0 0 2.726 3.448 3.448 0 0 0 1.844 1.844 3.528 3.528 0 0 0 2.726 0 3.448 3.448 0 0 0 1.844-1.844 3.528 3.528 0 0 0 0-2.726 3.448 3.448 0 0 0-1.844-1.844 3.367 3.367 0 0 0-1.363-.24 3.368 3.368 0 0 0-1.363.24z"/></g></g></g></g></svg>