<svg xmlns="http://www.w3.org/2000/svg" version="1.1" xmlns:xlink="http://www.w3.org/1999/xlink" xmlns:svgjs="http://svgjs.dev/svgjs" viewBox="0 0 800 800"><defs><linearGradient x1="50%" y1="0%" x2="50%" y2="100%" id="cccoil-grad"><stop stop-color="hsl(206, 75%, 49%)" stop-opacity="1" offset="0%"></stop><stop stop-color="hsl(331, 90%, 56%)" stop-opacity="1" offset="100%"></stop></linearGradient></defs><g stroke="url(#cccoil-grad)" fill="none" stroke-linecap="round"><circle r="399" cx="400" cy="400" stroke-width="1" stroke-dasharray="2131 2507" opacity="0.05"></circle><circle r="380" cx="400" cy="400" stroke-width="1" stroke-dasharray="1928 2388" transform="rotate(18, 400, 400)" opacity="0.10"></circle><circle r="361" cx="400" cy="400" stroke-width="1" stroke-dasharray="1735 2268" transform="rotate(36, 400, 400)" opacity="0.15"></circle><circle r="342" cx="400" cy="400" stroke-width="1" stroke-dasharray="1553 2149" transform="rotate(54, 400, 400)" opacity="0.19"></circle><circle r="323" cx="400" cy="400" stroke-width="1" stroke-dasharray="1380 2029" transform="rotate(72, 400, 400)" opacity="0.24"></circle><circle r="304" cx="400" cy="400" stroke-width="1" stroke-dasharray="1218 1910" transform="rotate(90, 400, 400)" opacity="0.29"></circle><circle r="285" cx="400" cy="400" stroke-width="1" stroke-dasharray="1065 1791" transform="rotate(108, 400, 400)" opacity="0.33"></circle><circle r="266" cx="400" cy="400" stroke-width="1" stroke-dasharray="923 1671" transform="rotate(126, 400, 400)" opacity="0.38"></circle><circle r="247" cx="400" cy="400" stroke-width="1" stroke-dasharray="791 1552" transform="rotate(144, 400, 400)" opacity="0.43"></circle><circle r="228" cx="400" cy="400" stroke-width="1" stroke-dasharray="670 1433" transform="rotate(162, 400, 400)" opacity="0.48"></circle><circle r="209" cx="400" cy="400" stroke-width="1" stroke-dasharray="558 1313" transform="rotate(180, 400, 400)" opacity="0.53"></circle><circle r="190" cx="400" cy="400" stroke-width="1" stroke-dasharray="457 1194" transform="rotate(198, 400, 400)" opacity="0.57"></circle><circle r="171" cx="400" cy="400" stroke-width="1" stroke-dasharray="365 1074" transform="rotate(216, 400, 400)" opacity="0.62"></circle><circle r="152" cx="400" cy="400" stroke-width="1" stroke-dasharray="284 955" transform="rotate(234, 400, 400)" opacity="0.67"></circle><circle r="133" cx="400" cy="400" stroke-width="1" stroke-dasharray="213 836" transform="rotate(252, 400, 400)" opacity="0.71"></circle><circle r="114" cx="400" cy="400" stroke-width="1" stroke-dasharray="152 716" transform="rotate(270, 400, 400)" opacity="0.76"></circle><circle r="95" cx="400" cy="400" stroke-width="1" stroke-dasharray="101 597" transform="rotate(288, 400, 400)" opacity="0.81"></circle><circle r="76" cx="400" cy="400" stroke-width="1" stroke-dasharray="61 478" transform="rotate(306, 400, 400)" opacity="0.86"></circle><circle r="57" cx="400" cy="400" stroke-width="1" stroke-dasharray="30 358" transform="rotate(324, 400, 400)" opacity="0.91"></circle><circle r="38" cx="400" cy="400" stroke-width="1" stroke-dasharray="10 239" transform="rotate(342, 400, 400)" opacity="0.95"></circle><circle r="19" cx="400" cy="400" stroke-width="1" stroke-dasharray="0 119" transform="rotate(360, 400, 400)" opacity="1.00"></circle></g></svg>