<svg xmlns="http://www.w3.org/2000/svg" version="1.1" xmlns:xlink="http://www.w3.org/1999/xlink" xmlns:svgjs="http://svgjs.dev/svgjs" viewBox="0 0 1422 800"><defs><linearGradient x1="50%" y1="0%" x2="50%" y2="100%" id="oooscillate-grad"><stop stop-color="hsl(165, 100%, 49%)" stop-opacity="1" offset="0%"></stop><stop stop-color="hsl(331, 100%, 50%)" stop-opacity="1" offset="100%"></stop></linearGradient></defs><g stroke-width="1" stroke="url(#oooscillate-grad)" fill="none" stroke-linecap="round"><path d="M 0 944 Q 355.5 130 711 400 Q 1066.5 670 1422 944" opacity="1.00"></path><path d="M 0 826 Q 355.5 130 711 400 Q 1066.5 670 1422 826" opacity="0.86"></path><path d="M 0 708 Q 355.5 130 711 400 Q 1066.5 670 1422 708" opacity="0.73"></path><path d="M 0 590 Q 355.5 130 711 400 Q 1066.5 670 1422 590" opacity="0.59"></path><path d="M 0 472 Q 355.5 130 711 400 Q 1066.5 670 1422 472" opacity="0.46"></path><path d="M 0 354 Q 355.5 130 711 400 Q 1066.5 670 1422 354" opacity="0.32"></path><path d="M 0 236 Q 355.5 130 711 400 Q 1066.5 670 1422 236" opacity="0.19"></path></g></svg>