<svg width="400" height="300" viewBox="0 0 400 300" fill="none" xmlns="http://www.w3.org/2000/svg">
<g clip-path="url(#clip0)">
<rect x="161.205" y="80.5576" width="28.1884" height="244.463" rx="4" fill="#D2D2D2" stroke="black" stroke-width="4"/>
<path d="M46.5681 112.371C47.3031 111.84 48.1968 111.574 49.1028 111.617L296.096 123.429C298.303 123.535 300.006 125.409 299.9 127.616L296.868 191.021C296.762 193.228 294.888 194.931 292.681 194.825L45.8417 183.021C44.8429 182.973 43.8983 182.553 43.1938 181.843L7.75237 146.136C6.02191 144.393 6.25708 141.516 8.24772 140.077L46.5681 112.371Z" fill="white"/>
<path d="M296.191 121.432L49.1983 109.619C47.8394 109.554 46.4987 109.953 45.3963 110.75L7.07591 138.456C4.08995 140.615 3.73721 144.93 6.33289 147.545L41.7744 183.252C42.831 184.316 44.248 184.947 45.7462 185.018L292.586 196.823C295.896 196.981 298.707 194.426 298.866 191.117L301.898 127.711C302.056 124.401 299.501 121.59 296.191 121.432Z" stroke="black" stroke-opacity="0.7" stroke-width="4"/>
<path d="M72.389 142.149L77.8356 142.409C77.9859 137.615 74.2068 134.12 68.2222 133.833C62.3294 133.552 57.8559 136.6 57.6487 141.483C57.446 145.446 60.1329 147.85 64.6217 149.157L67.5133 150.032C70.4061 150.88 71.9933 151.798 71.9198 153.61C71.8126 155.578 69.8849 156.828 66.9976 156.689C64.0446 156.548 61.9838 155.082 61.9287 152.382L56.4297 152.119C56.296 157.94 60.3126 161.145 66.8354 161.457C73.3975 161.77 77.406 158.818 77.6545 153.897C77.8554 149.421 74.5961 146.885 69.9741 145.611L67.5868 144.918C65.2765 144.268 63.3624 143.309 63.494 141.381C63.5769 139.649 65.1733 138.449 67.9556 138.582C70.6723 138.712 72.2801 140.026 72.389 142.149ZM94.3426 153.788C94.2264 156.492 92.3081 157.821 90.3001 157.725C88.1871 157.624 86.8931 156.076 86.9936 153.699L87.5597 141.861L81.9688 141.594L81.355 154.43C81.1428 159.142 83.7614 162.148 87.8168 162.342C90.8485 162.487 93.1018 161.029 94.1203 158.71L94.3303 158.72L94.1552 162.382L99.523 162.638L100.487 142.48L94.8962 142.212L94.3426 153.788ZM113.084 163.682C118.452 163.938 121.976 160.95 122.46 156.33L117.184 156.077C116.753 158.214 115.278 159.354 113.362 159.262C110.75 159.137 109.162 156.864 109.346 153.006C109.528 149.2 111.339 147.103 113.937 147.227C115.985 147.325 117.232 148.739 117.438 150.762L122.714 151.014C122.701 146.344 119.316 143.117 114.054 142.865C107.938 142.573 103.955 146.631 103.66 152.813C103.367 158.942 106.877 163.385 113.084 163.682ZM134.775 164.719C140.143 164.976 143.667 161.987 144.151 157.367L138.875 157.115C138.444 159.251 136.969 160.391 135.053 160.299C132.441 160.174 130.853 157.902 131.037 154.043C131.219 150.237 133.03 148.14 135.628 148.264C137.676 148.362 138.923 149.777 139.129 151.799L144.405 152.052C144.392 147.381 141.007 144.154 135.745 143.903C129.629 143.61 125.646 147.669 125.351 153.85C125.058 159.979 128.568 164.422 134.775 164.719ZM156.545 165.76C161.532 165.999 165.008 163.731 165.975 160.029L160.82 159.44C160.182 160.949 158.7 161.68 156.837 161.591C154.041 161.457 152.358 159.522 152.502 156.517L152.502 156.503L166.23 157.16L166.304 155.624C166.631 148.774 162.646 145.189 157.318 144.934C151.385 144.651 147.339 148.68 147.041 154.901C146.735 161.292 150.337 165.463 156.545 165.76ZM152.668 153.039C152.896 150.748 154.729 148.994 157.21 149.112C159.638 149.228 161.235 151.041 161.133 153.444L152.668 153.039ZM186.927 152.375C186.606 148.637 183.723 146.197 178.631 145.954C173.473 145.707 169.96 147.933 169.787 151.818C169.63 154.836 171.439 156.883 175.339 157.859L178.797 158.721C180.538 159.16 181.308 159.841 181.286 160.853C181.203 162.046 179.863 162.837 177.907 162.743C175.912 162.648 174.628 161.731 174.365 160.075L168.852 160.1C169.192 163.984 172.36 166.516 177.701 166.772C182.925 167.022 186.793 164.536 186.996 160.56C187.122 157.646 185.303 155.81 181.43 154.822L177.817 153.913C175.959 153.416 175.294 152.74 175.354 151.769C175.399 150.561 176.801 149.839 178.534 149.922C180.476 150.015 181.58 151.133 181.794 152.445L186.927 152.375ZM207.68 153.368C207.359 149.63 204.476 147.19 199.384 146.946C194.226 146.7 190.713 148.926 190.54 152.811C190.383 155.829 192.192 157.875 196.092 158.851L199.549 159.714C201.291 160.152 202.061 160.834 202.039 161.845C201.956 163.038 200.615 163.829 198.66 163.736C196.665 163.64 195.38 162.724 195.118 161.067L189.605 161.093C189.945 164.976 193.113 167.509 198.454 167.764C203.678 168.014 207.545 165.529 207.749 161.553C207.875 158.639 206.055 156.802 202.183 155.814L198.569 154.905C196.712 154.408 196.047 153.732 196.107 152.761C196.151 151.553 197.554 150.831 199.286 150.914C201.229 151.007 202.333 152.125 202.546 153.438L207.68 153.368ZM230.728 148.708L224.809 148.425L219.946 162.649L219.736 162.639L216.239 148.015L210.333 147.733L216.417 168.229L222.717 168.53L230.728 148.708ZM232.625 169.004L238.216 169.271L239.18 149.112L233.589 148.845L232.625 169.004ZM236.522 146.381C238.189 146.461 239.615 145.253 239.69 143.691C239.764 142.142 238.46 140.804 236.793 140.724C235.139 140.645 233.713 141.853 233.639 143.402C233.565 144.963 234.869 146.302 236.522 146.381ZM249.571 142.874L243.98 142.607L242.695 169.485L248.286 169.753L249.571 142.874ZM261.933 170.8C266.92 171.039 270.396 168.771 271.362 165.069L266.207 164.48C265.57 165.989 264.088 166.72 262.224 166.631C259.429 166.497 257.745 164.562 257.889 161.557L257.89 161.543L271.618 162.2L271.691 160.664C272.019 153.814 268.033 150.229 262.705 149.974C256.773 149.691 252.726 153.72 252.428 159.941C252.123 166.332 255.725 170.503 261.933 170.8ZM258.055 158.079C258.283 155.788 260.117 154.034 262.597 154.152C265.025 154.268 266.622 156.081 266.521 158.484L258.055 158.079Z" fill="black"/>
<path d="M345.268 210.209C344.548 209.709 343.683 209.458 342.806 209.498L95.7286 220.529C93.5216 220.628 91.8124 222.497 91.911 224.704L94.6033 285.006C94.7019 287.213 96.5708 288.922 98.7778 288.823L345.704 277.798C346.673 277.755 347.593 277.362 348.293 276.691L383.708 242.773C385.533 241.024 385.3 238.042 383.225 236.6L345.268 210.209Z" fill="white"/>
<path d="M95.6393 218.531L342.717 207.5C344.032 207.441 345.329 207.816 346.41 208.567L384.366 234.957C387.479 237.122 387.829 241.595 385.091 244.217L349.676 278.136C348.626 279.141 347.246 279.731 345.794 279.796L98.867 290.821C95.5566 290.969 92.7531 288.405 92.6053 285.095L89.9129 224.793C89.7651 221.482 92.3289 218.679 95.6393 218.531Z" stroke="black" stroke-opacity="0.7" stroke-width="4"/>
<path d="M127.234 266.166L132.918 265.912L132.422 254.808L143.356 254.319L143.147 249.633L132.213 250.122L131.927 243.716L144.042 243.175L143.833 238.489L126.034 239.284L127.234 266.166ZM154.265 265.341C157.244 265.208 159.116 263.822 160.017 261.901L160.174 261.894L160.299 264.69L165.602 264.453L164.995 250.854C164.78 246.05 160.621 244.21 156.132 244.411C151.301 244.626 148.228 247.078 147.618 250.788L152.808 250.978C153.129 249.622 154.279 248.584 156.288 248.494C158.191 248.409 159.323 249.319 159.397 250.973L159.401 251.051C159.459 252.351 158.088 252.583 154.599 253.081C150.625 253.627 147.101 255.125 147.302 259.628C147.48 263.618 150.419 265.512 154.265 265.341ZM155.694 261.41C153.974 261.487 152.705 260.741 152.636 259.205C152.566 257.63 153.831 256.798 155.787 256.434C157 256.209 158.983 255.831 159.632 255.355L159.728 257.495C159.822 259.608 158.148 261.3 155.694 261.41ZM169.94 264.259L175.532 264.01L174.632 243.848L169.04 244.098L169.94 264.259ZM171.733 241.373C173.4 241.299 174.708 239.965 174.638 238.403C174.569 236.854 173.147 235.641 171.48 235.716C169.826 235.79 168.518 237.124 168.587 238.673C168.657 240.235 170.079 241.447 171.733 241.373ZM184.403 236.678L178.811 236.927L180.011 263.81L185.603 263.56L184.403 236.678ZM202.628 254.198C202.762 256.902 200.974 258.402 198.966 258.492C196.853 258.586 195.421 257.164 195.302 254.788L194.774 242.949L189.182 243.198L189.755 256.036C189.979 260.747 192.863 263.499 196.919 263.318C199.952 263.182 202.061 261.523 202.861 259.12L203.071 259.111L203.234 262.773L208.603 262.533L207.703 242.371L202.111 242.621L202.628 254.198ZM213.076 262.333L218.668 262.084L218.158 250.677C218.047 248.196 219.783 246.409 222.25 246.299C223.025 246.264 224.094 246.348 224.627 246.495L224.405 241.533C223.901 241.438 223.202 241.39 222.637 241.415C220.38 241.516 218.587 242.911 217.964 245.438L217.754 245.447L217.597 241.93L212.176 242.172L213.076 262.333ZM236.468 261.683C241.456 261.461 244.708 258.882 245.328 255.106L240.141 254.996C239.645 256.557 238.237 257.422 236.373 257.505C233.577 257.63 231.723 255.858 231.588 252.853L231.588 252.839L245.318 252.226L245.249 250.691C244.943 243.839 240.644 240.637 235.315 240.875C229.382 241.14 225.724 245.525 226.002 251.747C226.287 258.14 230.259 261.961 236.468 261.683ZM231.433 249.374C231.449 247.072 233.112 245.156 235.593 245.045C238.022 244.937 239.779 246.595 239.9 248.996L231.433 249.374ZM259.177 240.073L255.384 240.242L255.168 235.412L249.576 235.662L249.792 240.492L247.035 240.615L247.223 244.815L249.979 244.692L250.448 255.193C250.598 259.145 253.377 260.981 257.425 260.629C258.866 260.512 259.877 260.178 260.434 259.969L259.368 255.847C259.095 255.912 258.51 256.07 257.985 256.093C256.869 256.143 256.076 255.757 256.007 254.209L255.571 244.443L259.365 244.273L259.177 240.073ZM272.63 260.069C278.747 259.796 282.367 255.439 282.089 249.23C281.81 242.982 277.817 238.978 271.701 239.251C265.584 239.524 261.964 243.868 262.243 250.116C262.52 256.325 266.513 260.342 272.63 260.069ZM272.463 255.736C269.641 255.862 268.082 253.341 267.925 249.823C267.767 246.305 269.095 243.642 271.917 243.516C274.687 243.392 276.247 245.926 276.404 249.444C276.561 252.962 275.233 255.612 272.463 255.736ZM291.243 247.164C291.14 244.564 292.621 242.973 294.879 242.872C297.123 242.772 298.541 244.181 298.638 246.65L299.167 258.489L304.758 258.24L304.185 245.402C303.976 240.703 301.09 237.939 296.89 238.126C293.897 238.26 291.797 239.827 290.996 242.217L290.76 242.227L290.601 238.67L285.272 238.908L286.172 259.07L291.764 258.82L291.243 247.164Z" fill="black"/>
</g>
<defs>
<clipPath id="clip0">
<rect width="400" height="300" fill="white"/>
</clipPath>
</defs>
</svg>
