<svg width="137" height="41" viewBox="0 0 137 41" fill="none" xmlns="http://www.w3.org/2000/svg">
<path d="M32.9165 17.7872V0.570801H38.5806V17.7872C38.5806 19.6631 39.2319 21.2795 40.5345 22.6363C41.8371 23.9932 43.4544 24.6753 45.379 24.6753C47.4573 24.6753 49.199 23.9932 50.6187 22.6363C52.0384 21.2795 52.7409 19.6631 52.7409 17.7872V0.570801H58.405V29.2649H53.3044L52.6823 25.5205C52.6823 25.5205 52.0896 27.1221 50.3625 28.1156C48.5477 29.2649 46.5133 29.8358 44.2447 29.8358C40.8053 29.8358 38.061 28.7533 36.0047 26.5956C33.9483 24.438 32.9165 21.4945 32.9165 17.7872Z" fill="white"/>
<path d="M60.8931 40.7426V0.570915H65.9937L66.2791 4.76751C66.8792 4.07797 67.6988 0 75.6241 0C79.4002 0 82.5177 1.35685 84.9692 4.07797C87.4207 6.79167 88.6501 10.4099 88.6501 14.9254C88.6501 19.4408 87.4207 23.059 84.9692 25.7727C82.5177 28.4864 79.4002 29.8507 75.6241 29.8507C71.8481 29.8507 68.8111 28.5087 66.8426 25.8321H66.5572V40.75H60.8931V40.7426ZM68.9062 21.9765C70.4723 23.7782 72.4262 24.6754 74.7679 24.6754C77.1097 24.6754 79.0636 23.7782 80.6296 21.9765C82.1957 20.1822 82.9787 17.8244 82.9787 14.9179C82.9787 12.0115 82.1957 9.66107 80.6296 7.85935C79.0636 6.06505 77.1097 5.16048 74.7679 5.16048C72.4262 5.16048 70.4723 6.05763 68.9062 7.85935C67.3402 9.66107 66.5572 12.0115 66.5572 14.9179C66.5572 17.8244 67.3402 20.1822 68.9062 21.9765V21.9765Z" fill="white"/>
<path d="M111.416 20.9458H117.366C116.532 23.2443 115.032 25.2981 112.865 27.1147C110.692 28.9312 107.948 29.8432 104.625 29.8432C100.513 29.8432 97.1171 28.4641 94.4607 25.7133C91.797 22.9552 90.4651 19.3665 90.4651 14.9253C90.4651 10.484 91.797 6.88796 94.4607 4.13719C97.1244 1.379 100.513 0.00732422 104.625 0.00732422C108.475 0.00732422 111.702 1.34935 114.314 4.02597C116.92 6.7026 118.222 10.0539 118.222 14.0726C118.222 14.4137 118.164 15.1032 118.054 16.1412L117.944 16.942H96.1365C96.4365 19.3888 97.3659 21.3388 98.91 22.792C100.461 24.2453 102.364 24.9719 104.633 24.9719C106.221 24.9719 107.626 24.5789 108.855 23.793C110.085 23.0071 110.941 22.0654 111.431 20.9532L111.416 20.9458ZM96.1219 12.6268H112.829C112.529 10.2912 111.636 8.41535 110.165 7.0066C108.694 5.59043 106.843 4.88605 104.618 4.88605C102.276 4.88605 100.388 5.58302 98.9539 6.98435C97.5196 8.37828 96.5756 10.269 96.1219 12.6342V12.6268Z" fill="white"/>
<path d="M120.176 29.4875V10.8772C120.176 5.30888 124.633 0.793457 130.128 0.793457H136.319V6.47295H131.79C127.823 6.47295 125.84 8.46003 125.84 12.4416V29.4875H120.176V29.4875Z" fill="white"/>
<path d="M4.68378 29.3316H0.322266V23.3333H4.68378C7.23775 23.3333 9.55023 21.8207 10.443 19.5667L14.9728 8.0965C16.7511 3.59591 21.2736 0.570801 26.2206 0.570801H30.6479V6.56912H26.2206C23.6666 6.56912 21.3541 8.08167 20.4613 10.3357L15.9315 21.8059C14.1532 26.3065 9.63073 29.339 4.67646 29.339L4.68378 29.3316Z" fill="white"/>
</svg>
