<svg width="1251" height="249" viewBox="0 0 1251 249" fill="none" xmlns="http://www.w3.org/2000/svg">
<path d="M0.187805 201.844H157.072V175.358H30.9871V32.0469H0.187805V201.844Z" fill="white"/>
<path d="M241.922 180.324C218.341 180.324 200.295 168.027 196.445 148.162H309.776V138.229C309.776 102.52 283.549 75.3239 241.922 75.3239C198.851 75.3239 169.014 103.466 169.014 139.885C169.014 178.196 199.813 204.446 241.922 204.446C275.849 204.446 299.67 186.236 307.37 166.844L284.271 154.783C278.255 169.919 262.856 180.324 241.922 180.324ZM240.478 98.9726C264.299 98.9726 279.94 113.871 281.865 126.878H197.648C203.182 108.669 220.507 98.9726 240.478 98.9726Z" fill="white"/>
<path d="M351.823 75.3239V77.6888H320.061V101.81H351.823V201.844H379.975V101.81H429.783V77.6888H379.975V76.2699C379.975 60.8983 389.119 55.4591 407.165 55.4591C416.79 55.4591 422.324 56.1685 431.227 58.2969L436.039 33.4658C428.34 30.628 416.068 29.4456 407.165 29.4456C375.403 29.4456 351.823 42.2158 351.823 75.3239Z" fill="white"/>
<path d="M473.191 159.277C473.191 192.621 497.493 203.263 524.443 203.263C537.195 203.263 552.595 200.189 561.979 196.641L557.167 172.52C548.745 175.121 540.083 177.723 529.496 177.723C510.487 177.723 501.584 172.756 501.584 156.675V101.81H557.167V77.6888H501.584V41.2699H473.191V77.6888H441.429V101.81H473.191V159.277Z" fill="white"/>
<path d="M587.383 201.844H702.64C738.252 201.844 761.832 184.344 761.832 154.547C761.832 133.736 748.598 119.074 730.552 113.398C742.583 108.669 756.298 97.7901 756.298 76.7428C756.298 47.8915 735.364 32.0469 698.309 32.0469H587.383V201.844ZM616.979 102.283V57.5874H695.421C715.152 57.5874 727.183 64.9185 727.183 79.8172C727.183 94.7158 715.152 102.283 695.421 102.283H616.979ZM616.979 127.824H700.956C720.446 127.824 732.236 137.756 732.236 151.946C732.236 166.371 720.446 176.304 700.956 176.304H616.979V127.824Z" fill="white"/>
<path d="M876.963 78.8712C873.354 77.9253 868.541 76.9793 862.766 76.9793C842.314 76.9793 825.23 83.3645 814.402 100.155V77.6888H785.528V201.844H814.402V146.743C814.402 117.182 833.17 105.121 862.045 105.121C868.541 105.121 871.188 105.831 876.963 107.25V78.8712Z" fill="white"/>
<path d="M940.595 204.446C964.176 204.446 983.666 196.405 994.975 185.054C999.066 197.351 1011.34 207.283 1038.29 201.844V179.851C1022.89 183.162 1019.52 180.087 1019.52 172.993V120.729C1019.52 91.1685 997.382 75.3239 958.401 75.3239C927.843 75.3239 900.171 89.0402 892.231 109.851L916.052 120.256C920.865 108.196 937.949 99.4455 957.439 99.4455C981.02 99.4455 991.607 108.432 991.607 120.256V121.202L936.746 127.587C906.428 131.135 888.14 144.141 888.14 165.898C888.14 191.439 911.481 204.446 940.595 204.446ZM991.607 153.837C991.607 172.047 964.657 181.506 943.002 181.506C926.399 181.506 916.293 176.067 916.293 165.662C916.293 155.256 924.715 151.236 941.558 149.344L991.607 143.432V153.837Z" fill="white"/>
<path d="M1057.61 61.1347H1087.45V32.0469H1057.61V61.1347ZM1086.97 77.6888H1058.09V201.844H1086.97V77.6888Z" fill="white"/>
<path d="M1119.77 201.844H1148.65V139.412C1148.65 116.473 1161.88 101.337 1186.42 101.337C1209.76 101.337 1221.31 116.946 1221.31 138.939V201.844H1250.19V134.209C1250.19 99.4455 1230.46 75.3239 1195.33 75.3239C1173.43 75.3239 1157.55 83.8374 1148.65 94.0064V77.6888H1119.77V201.844Z" fill="white"/>
<path d="M146.319 24.5678L122.344 0.592532L0.816098 122.12L107.379 228.682L131.354 204.707L48.7666 122.12L146.319 24.5678Z" fill="white"/>
<path d="M112.294 121.846L196.932 206.484C223.053 232.605 251.888 235.997 273.429 214.456C288.016 199.869 289.034 180.533 281.571 164.589C292.935 169.169 310.575 170.186 324.653 156.108C345.855 134.906 342.293 108.276 315.664 81.6467L234.078 0.0612793L112.294 121.846ZM208.929 72.6106L234.541 46.9985L289.543 102.001C300.907 113.365 303.112 124.051 294.631 132.532C286.15 141.012 275.295 138.977 263.931 127.613L208.929 72.6106ZM186.878 94.6607L245.442 153.225C256.298 164.08 257.146 176.123 249.004 184.265C240.863 192.406 228.82 191.558 217.965 180.703L159.401 122.139L186.878 94.6607Z" fill="white"/>
</svg>
